<?xml version="1.0" encoding="UTF-8"?>
<svg id="Capa_1" data-name="Capa 1" xmlns="http://www.w3.org/2000/svg" viewBox="0 0 32 32">
  <defs>
    <style>
      .cls-1 {
        fill: #425059;
      }
    </style>
  </defs>
  <path class="cls-1" d="M3.34,28.85l1.38-5.05-.33-.52c-1.37-2.18-2.1-4.7-2.09-7.29,0-7.55,6.15-13.69,13.7-13.69,3.66,0,7.1,1.43,9.68,4.02,2.59,2.59,4.01,6.03,4.01,9.69,0,7.55-6.15,13.69-13.7,13.69h0c-2.46,0-4.87-.66-6.97-1.91l-.5-.3-5.18,1.36ZM11.88,9.11c-.31-.69-.63-.7-.93-.71-.24-.01-.51,0-.79,0s-.72,.1-1.1,.52c-.38,.41-1.44,1.41-1.44,3.43s1.48,3.98,1.68,4.26c.21,.27,2.85,4.57,7.03,6.22,3.48,1.37,4.19,1.1,4.94,1.03,.76-.07,2.44-1,2.78-1.96,.34-.96,.34-1.79,.24-1.96-.1-.17-.38-.27-.79-.48s-2.44-1.2-2.81-1.34c-.38-.14-.65-.21-.93,.21-.27,.41-1.06,1.34-1.3,1.61-.24,.28-.48,.31-.89,.1-.41-.21-1.74-.64-3.31-2.04-1.22-1.09-2.05-2.44-2.29-2.85-.24-.41,0-.62,.18-.84,.33-.41,.89-1.13,1.03-1.41,.14-.28,.07-.52-.03-.72-.1-.21-.9-2.24-1.27-3.06Z"/>
</svg>